<svg xmlns="http://www.w3.org/2000/svg" version="1.1" xmlns:xlink="http://www.w3.org/1999/xlink" xmlns:svgjs="http://svgjs.dev/svgjs" width="2000" height="1500" viewBox="0 0 2000 1500"><rect width="2000" height="1500" fill="#7f1415"></rect><g transform="matrix(0.75,0,0,0.75,249.090909090909,282.7536437246963)"><svg viewBox="0 0 396 247" data-background-color="#7f1415" preserveAspectRatio="xMidYMid meet" height="1247" width="2000" xmlns="http://www.w3.org/2000/svg" xmlns:xlink="http://www.w3.org/1999/xlink"><g id="tight-bounds" transform="matrix(1,0,0,1,0.2400000000000091,-0.09999999999999432)"><svg viewBox="0 0 395.52 247.2" height="247.2" width="395.52"><g><svg></svg></g><g><svg viewBox="0 0 395.52 247.2" height="247.2" width="395.52"><g transform="matrix(1,0,0,1,83.73777542932629,47.215199999999996)"><svg viewBox="0 0 228.0444491413474 152.7696" height="152.7696" width="228.0444491413474"><g><svg viewBox="0 0 228.0444491413474 152.7696" height="152.7696" width="228.0444491413474"><g><svg viewBox="0 0 228.0444491413474 152.7696" height="152.7696" width="228.0444491413474"><g><svg viewBox="0 0 228.0444491413474 152.7696" height="152.7696" width="228.0444491413474"><g id="textblocktransform"><svg viewBox="0 0 228.0444491413474 152.7696" height="152.7696" width="228.0444491413474" id="textblock"><g><svg viewBox="0 0 228.0444491413474 152.7696" height="152.7696" width="228.0444491413474"><g transform="matrix(1,0,0,1,0,0)"><svg width="228.0444491413474" viewBox="1.27 -36.72 55.169999999999995 36.96" height="152.7696" data-palette-color="#e8cef5"><path d="M17.33-36.72L23.29-36.72 23.29-8.69Q23.29-6.15 22.36-4.42 21.44-2.69 19.87-1.64 18.31-0.59 16.28-0.17 14.26 0.24 12.11 0.24L12.11 0.24Q11.04 0.24 9.59 0.02 8.15-0.2 6.62-0.66 5.08-1.12 3.66-1.71 2.25-2.29 1.27-3.03L1.27-3.03 3.76-6.98Q4.25-6.64 5.15-6.27 6.05-5.91 7.13-5.59 8.2-5.27 9.38-5.03 10.55-4.79 11.57-4.79L11.57-4.79Q14.16-4.79 15.7-5.79 17.24-6.79 17.33-9.18L17.33-9.18 17.33-36.72ZM52.39-7.23L56.44-3.66Q54.44-1.71 51.9-0.73 49.36 0.24 46.43 0.24L46.43 0.24Q43.21 0.24 40.5-0.93 37.79-2.1 35.76-4.39 33.74-6.69 32.59-10.16 31.44-13.62 31.44-18.16L31.44-18.16Q31.44-22.71 32.59-26.15 33.74-29.59 35.76-31.88 37.79-34.18 40.52-35.38 43.26-36.57 46.43-36.57L46.43-36.57Q49.36-36.57 51.9-35.6 54.44-34.62 56.44-32.67L56.44-32.67 52.39-29.05Q51.17-30.47 49.68-31.1 48.19-31.74 46.58-31.74L46.58-31.74Q44.77-31.74 43.14-31.05 41.5-30.37 40.21-28.74 38.91-27.1 38.18-24.51 37.45-21.92 37.4-18.16L37.4-18.16Q37.45-14.5 38.16-11.91 38.86-9.33 40.11-7.69 41.35-6.05 42.94-5.3 44.53-4.54 46.29-4.54L46.29-4.54Q48.04-4.54 49.58-5.18 51.12-5.81 52.39-7.23L52.39-7.23Z" opacity="1" transform="matrix(1,0,0,1,0,0)" fill="#e8cef5" class="wordmark-text-0" data-fill-palette-color="primary" id="text-0"></path></svg></g></svg></g></svg></g></svg></g></svg></g></svg></g></svg></g><g><path d="M237.622 0c68.262 0 123.6 55.338 123.6 123.6 0 68.262-55.338 123.6-123.6 123.6-30.402 0-58.24-10.976-79.768-29.183l11.147 0c19.26 14.022 42.974 22.294 68.621 22.295 64.458 0 116.712-52.254 116.712-116.712 0-64.458-52.254-116.712-116.712-116.712-25.647 0-49.361 8.272-68.621 22.295l-11.147 0c21.528-18.206 49.366-29.183 79.768-29.183z" fill="#e8cef5" stroke="transparent" data-fill-palette-color="tertiary"></path></g></svg></g><defs></defs></svg><rect width="395.52" height="247.2" fill="none" stroke="none" visibility="hidden"></rect></g></svg></g></svg>