<svg xmlns="http://www.w3.org/2000/svg" version="1.1" xmlns:xlink="http://www.w3.org/1999/xlink" xmlns:svgjs="http://svgjs.dev/svgjs" width="2000" height="1500" viewBox="0 0 2000 1500"><rect width="2000" height="1500" fill="#000000"></rect><g transform="matrix(0.75,0,0,0.75,250.38384844837083,440.4883008620691)"><svg viewBox="0 0 141 58" data-background-color="#000000" preserveAspectRatio="xMidYMid meet" height="822" width="2000" xmlns="http://www.w3.org/2000/svg" xmlns:xlink="http://www.w3.org/1999/xlink"><g id="tight-bounds" transform="matrix(1,0,0,1,-0.03608175414686343,0.11869999999998981)"><svg viewBox="0 0 141.07216350829373 57.7626" height="57.7626" width="141.07216350829373"><g><svg viewBox="0 0 141.07216350829373 57.7626" height="57.7626" width="141.07216350829373"><g><svg viewBox="0 0 141.07216350829373 57.7626" height="57.7626" width="141.07216350829373"><g id="textblocktransform"><svg viewBox="0 0 141.07216350829373 57.7626" height="57.7626" width="141.07216350829373" id="textblock"><g><svg viewBox="0 0 141.07216350829373 57.7626" height="57.7626" width="141.07216350829373"><g><svg><g></g><g></g></svg></g><g><svg><g><svg></svg></g><g></g></svg></g><g id="text-0"><svg viewBox="0 0 141.07216350829373 57.7626" height="57.7626" width="141.07216350829373"><g transform="matrix(1,0,0,1,0,0)"><svg width="68.2796" viewBox="1.5 -35.1 42.2 35.7" height="57.7626" data-palette-color="url(#a2e64d2c-3369-4711-859d-a18f399e4be9)"><g class="wordmark-text-0" data-fill-palette-color="primary"></g></svg></g><g><svg xmlns="http://www.w3.org/2000/svg" xmlns:xlink="http://www.w3.org/1999/xlink" version="1.1" x="81.917" y="0" viewBox="11.017823632605118 11.459999999999999 37.963698158539415 37.07000000000001" style="enable-background:new 0 0 60 60;" xml:space="preserve" height="57.7626" width="59.155163508293725" class="icon-cg-0" data-fill-palette-color="accent" id="cg-0"></svg></g></svg></g></svg></g></svg></g></svg></g><g></g></svg></g><defs></defs><mask id="28c78467-c5ab-403a-8d30-394cf77aa78a"><g id="SvgjsG2909"><svg viewBox="0 0 141.07216350829373 57.7626" height="57.7626" width="141.07216350829373"><g><svg viewBox="0 0 141.07216350829373 57.7626" height="57.7626" width="141.07216350829373"><g><svg viewBox="0 0 141.07216350829373 57.7626" height="57.7626" width="141.07216350829373"><g id="SvgjsG2908"><svg viewBox="0 0 141.07216350829373 57.7626" height="57.7626" width="141.07216350829373" id="SvgjsSvg2907"><g><svg viewBox="0 0 141.07216350829373 57.7626" height="57.7626" width="141.07216350829373"><g><svg><g></g><g></g></svg></g><g><svg><g><svg></svg></g><g></g></svg></g><g id="SvgjsG2906"><svg viewBox="0 0 141.07216350829373 57.7626" height="57.7626" width="141.07216350829373"><g transform="matrix(1,0,0,1,0,0)"><svg width="68.2796" viewBox="1.5 -35.1 42.2 35.7" height="57.7626" data-palette-color="url(#a2e64d2c-3369-4711-859d-a18f399e4be9)"><g class="wordmark-text-0" data-fill-palette-color="primary"><path d="M8.4-34.5L12.8-34.5 12.8-7.25Q12.8-3.45 11.08-1.5 9.35 0.45 6.1 0.45L6.1 0.45Q5.45 0.45 4.58 0.38 3.7 0.3 2.88 0.15 2.05 0 1.5-0.2L1.5-0.2 2-3.3 4.5-3.3Q8.4-3.3 8.4-7.1L8.4-7.1 8.4-34.5ZM33.6-35.1L33.6-35.1Q35.8-35.1 37.37-35 38.95-34.9 40.27-34.68 41.6-34.45 43-34.1L43-34.1 42.55-30.75Q41.05-30.9 39.77-31 38.5-31.1 37.05-31.15 35.6-31.2 33.6-31.2L33.6-31.2Q30.25-31.2 28.3-29.9 26.35-28.6 25.52-25.55 24.7-22.5 24.7-17.25L24.7-17.25Q24.7-12 25.52-8.95 26.35-5.9 28.3-4.6 30.25-3.3 33.6-3.3L33.6-3.3Q36.8-3.3 38.97-3.43 41.15-3.55 43.25-3.85L43.25-3.85 43.7-0.55Q41.55 0.05 39.27 0.33 37 0.6 33.6 0.6L33.6 0.6Q28.65 0.6 25.67-1.13 22.7-2.85 21.37-6.75 20.05-10.65 20.05-17.25L20.05-17.25Q20.05-23.85 21.37-27.75 22.7-31.65 25.67-33.38 28.65-35.1 33.6-35.1Z" fill="white"></path></g></svg></g><g><svg xmlns="http://www.w3.org/2000/svg" xmlns:xlink="http://www.w3.org/1999/xlink" version="1.1" x="81.917" y="0" viewBox="11.017823632605118 11.459999999999999 37.963698158539415 37.07000000000001" style="enable-background:new 0 0 60 60;" xml:space="preserve" height="57.7626" width="59.155163508293725" class="icon-cg-0" data-fill-palette-color="accent" id="SvgjsSvg2905"><path d="M48.85 34.1L35.82 11.92c-0.17-0.29-0.47-0.46-0.81-0.46s-0.64 0.18-0.81 0.46L30 19.08l-4.21-7.15c-0.17-0.29-0.47-0.46-0.81-0.46s-0.64 0.18-0.81 0.46L11.15 34.1c-0.22 0.37-0.16 0.83 0.14 1.13l13.03 13.03c0.18 0.18 0.42 0.27 0.66 0.27s0.48-0.09 0.66-0.27L30 43.91l4.35 4.35c0.18 0.18 0.42 0.27 0.66 0.27s0.48-0.09 0.66-0.27l13.03-13.03C49.01 34.93 49.07 34.46 48.85 34.1zM24.99 46.28L13.13 34.42l11.86-20.18 3.93 6.68L21.17 34.1c-0.22 0.37-0.16 0.83 0.14 1.13l7.36 7.36L24.99 46.28zM30 22.77l6.85 11.65L30 41.27l-6.85-6.85L30 22.77zM35.01 46.28l-3.69-3.69 7.36-7.36c0.3-0.3 0.36-0.77 0.14-1.13l-7.74-13.17 3.93-6.68 11.86 20.18L35.01 46.28z" fill="black"></path></svg></g></svg></g></svg></g></svg></g></svg></g><g></g></svg></g><defs><mask></mask></defs></svg><rect width="141.07216350829373" height="57.7626" fill="black" stroke="none" visibility="hidden"></rect></g></mask><linearGradient x1="0" x2="1" y1="0.578" y2="0.595" id="a2e64d2c-3369-4711-859d-a18f399e4be9"><stop stop-color="#6ee2f5" offset="0"></stop><stop stop-color="#6454f0" offset="1"></stop></linearGradient><rect width="141.07216350829373" height="57.7626" fill="url(#a2e64d2c-3369-4711-859d-a18f399e4be9)" mask="url(#28c78467-c5ab-403a-8d30-394cf77aa78a)" data-fill-palette-color="primary"></rect><mask id="47a9b6a2-a27c-4c01-a991-1549aaf1cc04"><g id="SvgjsG2930"><svg viewBox="0 0 141.07216350829373 57.7626" height="57.7626" width="141.07216350829373"><g><svg viewBox="0 0 141.07216350829373 57.7626" height="57.7626" width="141.07216350829373"><g><svg viewBox="0 0 141.07216350829373 57.7626" height="57.7626" width="141.07216350829373"><g id="SvgjsG2929"><svg viewBox="0 0 141.07216350829373 57.7626" height="57.7626" width="141.07216350829373" id="SvgjsSvg2928"><g><svg viewBox="0 0 141.07216350829373 57.7626" height="57.7626" width="141.07216350829373"><g><svg><g></g><g></g></svg></g><g><svg><g><svg></svg></g><g></g></svg></g><g id="SvgjsG2927"><svg viewBox="0 0 141.07216350829373 57.7626" height="57.7626" width="141.07216350829373"><g transform="matrix(1,0,0,1,0,0)"><svg width="68.2796" viewBox="1.5 -35.1 42.2 35.7" height="57.7626" data-palette-color="url(#a2e64d2c-3369-4711-859d-a18f399e4be9)"><g class="wordmark-text-0" data-fill-palette-color="primary"></g></svg></g><g><svg xmlns="http://www.w3.org/2000/svg" xmlns:xlink="http://www.w3.org/1999/xlink" version="1.1" x="81.917" y="0" viewBox="11.017823632605118 11.459999999999999 37.963698158539415 37.07000000000001" style="enable-background:new 0 0 60 60;" xml:space="preserve" height="57.7626" width="59.155163508293725" class="icon-cg-0" data-fill-palette-color="accent" id="SvgjsSvg2926"><path d="M48.85 34.1L35.82 11.92c-0.17-0.29-0.47-0.46-0.81-0.46s-0.64 0.18-0.81 0.46L30 19.08l-4.21-7.15c-0.17-0.29-0.47-0.46-0.81-0.46s-0.64 0.18-0.81 0.46L11.15 34.1c-0.22 0.37-0.16 0.83 0.14 1.13l13.03 13.03c0.18 0.18 0.42 0.27 0.66 0.27s0.48-0.09 0.66-0.27L30 43.91l4.35 4.35c0.18 0.18 0.42 0.27 0.66 0.27s0.48-0.09 0.66-0.27l13.03-13.03C49.01 34.93 49.07 34.46 48.85 34.1zM24.99 46.28L13.13 34.42l11.86-20.18 3.93 6.68L21.17 34.1c-0.22 0.37-0.16 0.83 0.14 1.13l7.36 7.36L24.99 46.28zM30 22.77l6.85 11.65L30 41.27l-6.85-6.85L30 22.77zM35.01 46.28l-3.69-3.69 7.36-7.36c0.3-0.3 0.36-0.77 0.14-1.13l-7.74-13.17 3.93-6.68 11.86 20.18L35.01 46.28z" fill="white"></path></svg></g></svg></g></svg></g></svg></g></svg></g><g></g></svg></g><defs><mask></mask></defs><mask><g id="SvgjsG2925"><svg viewBox="0 0 141.07216350829373 57.7626" height="57.7626" width="141.07216350829373"><g><svg viewBox="0 0 141.07216350829373 57.7626" height="57.7626" width="141.07216350829373"><g><svg viewBox="0 0 141.07216350829373 57.7626" height="57.7626" width="141.07216350829373"><g id="SvgjsG2924"><svg viewBox="0 0 141.07216350829373 57.7626" height="57.7626" width="141.07216350829373" id="SvgjsSvg2923"><g><svg viewBox="0 0 141.07216350829373 57.7626" height="57.7626" width="141.07216350829373"><g><svg><g></g><g></g></svg></g><g><svg><g><svg></svg></g><g></g></svg></g><g id="SvgjsG2922"><svg viewBox="0 0 141.07216350829373 57.7626" height="57.7626" width="141.07216350829373"><g transform="matrix(1,0,0,1,0,0)"><svg width="68.2796" viewBox="1.5 -35.1 42.2 35.7" height="57.7626" data-palette-color="url(#a2e64d2c-3369-4711-859d-a18f399e4be9)"><g class="wordmark-text-0" data-fill-palette-color="primary"><path d="M8.4-34.5L12.8-34.5 12.8-7.25Q12.8-3.45 11.08-1.5 9.35 0.45 6.1 0.45L6.1 0.45Q5.45 0.45 4.58 0.38 3.7 0.3 2.88 0.15 2.05 0 1.5-0.2L1.5-0.2 2-3.3 4.5-3.3Q8.4-3.3 8.4-7.1L8.4-7.1 8.4-34.5ZM33.6-35.1L33.6-35.1Q35.8-35.1 37.37-35 38.95-34.9 40.27-34.68 41.6-34.45 43-34.1L43-34.1 42.55-30.75Q41.05-30.9 39.77-31 38.5-31.1 37.05-31.15 35.6-31.2 33.6-31.2L33.6-31.2Q30.25-31.2 28.3-29.9 26.35-28.6 25.52-25.55 24.7-22.5 24.7-17.25L24.7-17.25Q24.7-12 25.52-8.95 26.35-5.9 28.3-4.6 30.25-3.3 33.6-3.3L33.6-3.3Q36.8-3.3 38.97-3.43 41.15-3.55 43.25-3.85L43.25-3.85 43.7-0.55Q41.55 0.05 39.27 0.33 37 0.6 33.6 0.6L33.6 0.6Q28.65 0.6 25.67-1.13 22.7-2.85 21.37-6.75 20.05-10.65 20.05-17.25L20.05-17.25Q20.05-23.85 21.37-27.75 22.7-31.65 25.67-33.38 28.65-35.1 33.6-35.1Z" fill="black"></path></g></svg></g><g><svg xmlns="http://www.w3.org/2000/svg" xmlns:xlink="http://www.w3.org/1999/xlink" version="1.1" x="81.917" y="0" viewBox="11.017823632605118 11.459999999999999 37.963698158539415 37.07000000000001" style="enable-background:new 0 0 60 60;" xml:space="preserve" height="57.7626" width="59.155163508293725" class="icon-cg-0" data-fill-palette-color="accent" id="SvgjsSvg2921"><path d="M48.85 34.1L35.82 11.92c-0.17-0.29-0.47-0.46-0.81-0.46s-0.64 0.18-0.81 0.46L30 19.08l-4.21-7.15c-0.17-0.29-0.47-0.46-0.81-0.46s-0.64 0.18-0.81 0.46L11.15 34.1c-0.22 0.37-0.16 0.83 0.14 1.13l13.03 13.03c0.18 0.18 0.42 0.27 0.66 0.27s0.48-0.09 0.66-0.27L30 43.91l4.35 4.35c0.18 0.18 0.42 0.27 0.66 0.27s0.48-0.09 0.66-0.27l13.03-13.03C49.01 34.93 49.07 34.46 48.85 34.1zM24.99 46.28L13.13 34.42l11.86-20.18 3.93 6.68L21.17 34.1c-0.22 0.37-0.16 0.83 0.14 1.13l7.36 7.36L24.99 46.28zM30 22.77l6.85 11.65L30 41.27l-6.85-6.85L30 22.77zM35.01 46.28l-3.69-3.69 7.36-7.36c0.3-0.3 0.36-0.77 0.14-1.13l-7.74-13.17 3.93-6.68 11.86 20.18L35.01 46.28z" fill="black"></path></svg></g></svg></g></svg></g></svg></g></svg></g><g></g></svg></g><defs><mask></mask></defs></svg><rect width="141.07216350829373" height="57.7626" fill="black" stroke="none" visibility="hidden"></rect></g></mask></svg><rect width="141.07216350829373" height="57.7626" fill="black" stroke="none" visibility="hidden"></rect></g></mask><linearGradient x1="0" x2="1" y1="0.578" y2="0.595" id="512571d2-93fd-4c1f-824f-06631759e431"><stop stop-color="#6ee2f5" offset="0"></stop><stop stop-color="#6454f0" offset="1"></stop></linearGradient><rect width="141.07216350829373" height="57.7626" fill="url(#512571d2-93fd-4c1f-824f-06631759e431)" mask="url(#47a9b6a2-a27c-4c01-a991-1549aaf1cc04)" data-fill-palette-color="accent"></rect></svg><rect width="141.07216350829373" height="57.7626" fill="none" stroke="none" visibility="hidden"></rect></g></svg></g></svg>